<svg width="127" height="48" viewBox="0 0 127 48" fill="none" xmlns="http://www.w3.org/2000/svg">
<path d="M49.9999 17.1818V22.8636H35.6249V17.1818H49.9999ZM38.409 11.9545H46.2499V31.983C46.2499 32.286 46.302 32.5417 46.4061 32.75C46.5103 32.9489 46.6713 33.1004 46.8891 33.2045C47.1069 33.2992 47.3862 33.3466 47.7272 33.3466C47.9639 33.3466 48.2385 33.3182 48.551 33.2614C48.873 33.2045 49.1097 33.1572 49.2612 33.1193L50.3976 38.6307C50.0472 38.7348 49.5453 38.8627 48.8919 39.0142C48.248 39.1657 47.4809 39.2652 46.5908 39.3125C44.7915 39.4072 43.2811 39.2225 42.0595 38.7585C40.8379 38.285 39.9194 37.5417 39.3039 36.5284C38.6883 35.5152 38.39 34.2462 38.409 32.7216V11.9545ZM63.4764 39.3977C61.109 39.3977 59.0825 38.929 57.3969 37.9915C55.7113 37.0445 54.4187 35.7282 53.5191 34.0426C52.6194 32.3475 52.1696 30.3826 52.1696 28.1477C52.1696 25.9129 52.6194 23.9527 53.5191 22.267C54.4187 20.572 55.7113 19.2557 57.3969 18.3182C59.0825 17.3712 61.109 16.8977 63.4764 16.8977C65.8439 16.8977 67.8704 17.3712 69.556 18.3182C71.2416 19.2557 72.5342 20.572 73.4338 22.267C74.3334 23.9527 74.7833 25.9129 74.7833 28.1477C74.7833 30.3826 74.3334 32.3475 73.4338 34.0426C72.5342 35.7282 71.2416 37.0445 69.556 37.9915C67.8704 38.929 65.8439 39.3977 63.4764 39.3977ZM63.5333 33.6023C64.1961 33.6023 64.7691 33.3797 65.252 32.9347C65.735 32.4896 66.109 31.8551 66.3742 31.0312C66.6393 30.2074 66.7719 29.2273 66.7719 28.0909C66.7719 26.9451 66.6393 25.965 66.3742 25.1506C66.109 24.3267 65.735 23.6922 65.252 23.2472C64.7691 22.8021 64.1961 22.5795 63.5333 22.5795C62.8325 22.5795 62.2312 22.8021 61.7293 23.2472C61.2274 23.6922 60.8439 24.3267 60.5787 25.1506C60.3136 25.965 60.181 26.9451 60.181 28.0909C60.181 29.2273 60.3136 30.2074 60.5787 31.0312C60.8439 31.8551 61.2274 32.4896 61.7293 32.9347C62.2312 33.3797 62.8325 33.6023 63.5333 33.6023Z" fill="#4EA8DE"/>
<path d="M85.8628 39.2841C84.3098 39.2841 82.8798 38.8769 81.573 38.0625C80.2757 37.2481 79.234 36.0123 78.448 34.3551C77.6715 32.6979 77.2833 30.6098 77.2833 28.0909C77.2833 25.4583 77.6905 23.3182 78.5048 21.6705C79.3287 20.0227 80.3893 18.8153 81.6867 18.0483C82.9935 17.2812 84.3666 16.8977 85.806 16.8977C86.8855 16.8977 87.8325 17.0871 88.6469 17.4659C89.4613 17.8352 90.1431 18.3324 90.6924 18.9574C91.2416 19.5729 91.6583 20.25 91.9424 20.9886H92.056V9.90909H99.8969V39H92.1128V35.4205H91.9424C91.6393 36.1591 91.2037 36.822 90.6355 37.4091C90.0768 37.9867 89.395 38.446 88.5901 38.7869C87.7946 39.1184 86.8855 39.2841 85.8628 39.2841ZM88.7605 33.2614C89.4802 33.2614 90.0958 33.053 90.6071 32.6364C91.128 32.2102 91.5257 31.6136 91.8003 30.8466C92.0844 30.0701 92.2264 29.1515 92.2264 28.0909C92.2264 27.0114 92.0844 26.0881 91.8003 25.321C91.5257 24.5445 91.128 23.9527 90.6071 23.5455C90.0958 23.1288 89.4802 22.9205 88.7605 22.9205C88.0408 22.9205 87.4253 23.1288 86.9139 23.5455C86.412 23.9527 86.0238 24.5445 85.7492 25.321C85.484 26.0881 85.3514 27.0114 85.3514 28.0909C85.3514 29.1705 85.484 30.0985 85.7492 30.875C86.0238 31.642 86.412 32.2339 86.9139 32.6506C87.4253 33.0578 88.0408 33.2614 88.7605 33.2614ZM114.258 39.3977C111.89 39.3977 109.864 38.929 108.178 37.9915C106.493 37.0445 105.2 35.7282 104.3 34.0426C103.401 32.3475 102.951 30.3826 102.951 28.1477C102.951 25.9129 103.401 23.9527 104.3 22.267C105.2 20.572 106.493 19.2557 108.178 18.3182C109.864 17.3712 111.89 16.8977 114.258 16.8977C116.625 16.8977 118.652 17.3712 120.337 18.3182C122.023 19.2557 123.315 20.572 124.215 22.267C125.115 23.9527 125.565 25.9129 125.565 28.1477C125.565 30.3826 125.115 32.3475 124.215 34.0426C123.315 35.7282 122.023 37.0445 120.337 37.9915C118.652 38.929 116.625 39.3977 114.258 39.3977ZM114.315 33.6023C114.977 33.6023 115.55 33.3797 116.033 32.9347C116.516 32.4896 116.89 31.8551 117.155 31.0312C117.421 30.2074 117.553 29.2273 117.553 28.0909C117.553 26.9451 117.421 25.965 117.155 25.1506C116.89 24.3267 116.516 23.6922 116.033 23.2472C115.55 22.8021 114.977 22.5795 114.315 22.5795C113.614 22.5795 113.012 22.8021 112.511 23.2472C112.009 23.6922 111.625 24.3267 111.36 25.1506C111.095 25.965 110.962 26.9451 110.962 28.0909C110.962 29.2273 111.095 30.2074 111.36 31.0312C111.625 31.8551 112.009 32.4896 112.511 32.9347C113.012 33.3797 113.614 33.6023 114.315 33.6023Z" fill="#5E60CE"/>
<g clip-path="url(#clip0_43_109)">
<path d="M11.9362 12.9332C15.0843 16.8835 16.7806 21.7672 16.7485 26.7886L16.7553 27.9872L17.7901 28.6088C19.1271 29.4079 20.1279 30.6533 20.6102 32.1181C20.1923 31.8141 19.7554 31.5364 19.3021 31.2865L16.5434 29.7581L16.0669 32.8772C16.0257 33.1528 15.9698 33.4261 15.8997 33.696L8.19406 33.7397C8.07748 33.3878 7.98238 33.0358 7.89436 32.6697L7.25534 29.853L4.72822 31.2775C4.30603 31.5167 3.8986 31.7804 3.50806 32.067C3.983 30.6137 4.94892 29.3642 6.2452 28.5262L7.22274 27.8932L7.21643 26.7792C7.20577 21.7784 8.86683 16.9128 11.9433 12.9331L11.9362 12.9332ZM11.9267 10.0002C11.766 10.0015 11.6112 10.0599 11.4908 10.1648L11.4267 10.2216C7.32289 14.792 5.06314 20.6847 5.07514 26.7843C3.32911 27.9135 2.04155 29.6109 1.43746 31.5797C0.833368 33.5485 0.951168 35.6635 1.77027 37.5552C2.61133 35.6989 4.02612 34.1511 5.81297 33.1327C5.99709 33.8984 6.24078 34.6489 6.54186 35.3777C6.58031 35.518 6.66449 35.6418 6.78144 35.7304C6.8984 35.8189 7.04165 35.8671 7.18918 35.8676L17.1291 35.8113C17.3296 35.8101 17.5291 35.6186 17.6277 35.3219C17.9135 34.6258 18.1114 33.8977 18.2169 33.1541C20.0186 34.1479 21.452 35.6807 22.3095 37.5305C23.156 35.6386 23.2766 33.5089 22.649 31.5364C22.0215 29.5639 20.6884 27.8826 18.8971 26.8046C18.9331 20.6688 16.6185 14.7454 12.4149 10.216C12.3523 10.1478 12.2759 10.0934 12.1905 10.0563C12.1052 10.0191 12.0129 9.99998 11.9195 10.0002L11.9267 10.0002Z" fill="#4EA8DE"/>
<path d="M12.0111 26.1597C11.4611 26.1628 10.9224 26.0056 10.4631 25.7077C10.0037 25.4099 9.64425 24.9848 9.42995 24.4861C9.21566 23.9874 9.15613 23.4373 9.25887 22.9053C9.36162 22.3733 9.62204 21.8831 10.0073 21.4965C10.3926 21.1099 10.8855 20.8442 11.4238 20.733C11.9622 20.6217 12.5219 20.6698 13.0324 20.8713C13.543 21.0728 13.9815 21.4185 14.2927 21.865C14.6039 22.3115 14.7739 22.8387 14.7812 23.3802V23.3802C14.7918 23.7311 14.732 24.0806 14.6053 24.4087C14.4786 24.7369 14.2875 25.0373 14.0429 25.2927C13.7983 25.5481 13.5049 25.7536 13.1796 25.8974C12.8543 26.0412 12.5034 26.1205 12.147 26.1308C12.102 26.1381 12.0561 26.1384 12.011 26.1315L12.0111 26.1597Z" fill="#4EA8DE"/>
<path d="M15.9503 37.5736C15.7711 37.5689 15.5928 37.5996 15.4257 37.6637C15.2587 37.7279 15.1064 37.8242 14.9776 37.9471C14.8489 38.07 14.7464 38.2169 14.6762 38.3793C14.6059 38.5417 14.5693 38.7163 14.5685 38.8928L14.5921 43.0526C14.5941 43.4153 14.7425 43.7624 15.0045 44.0174C15.2665 44.2724 15.6206 44.4145 15.9891 44.4125C16.3576 44.4104 16.7101 44.2643 16.9692 44.0063C17.2283 43.7483 17.3727 43.3996 17.3707 43.0368L17.3474 38.9335C17.3521 38.7576 17.3212 38.5826 17.2566 38.4186C17.1919 38.2546 17.0947 38.105 16.9707 37.9784C16.8466 37.8517 16.6982 37.7507 16.5341 37.6812C16.37 37.6116 16.1935 37.5749 16.0148 37.5732L15.9503 37.5736Z" fill="#5E60CE"/>
<path d="M8.21609 37.6174C8.03381 37.6089 7.85165 37.6367 7.68046 37.6989C7.50927 37.7612 7.35255 37.8567 7.21962 37.9798C7.08668 38.1029 6.98025 38.2511 6.90666 38.4155C6.83307 38.58 6.79383 38.7573 6.79126 38.9369L6.81484 43.0967C6.8169 43.4594 6.96524 43.8065 7.22724 44.0615C7.48924 44.3165 7.84343 44.4586 8.2119 44.4566C8.58036 44.4545 8.93292 44.3084 9.19201 44.0504C9.4511 43.7924 9.5955 43.4437 9.59344 43.0809L9.57018 38.9776C9.57491 38.8017 9.54403 38.6267 9.47935 38.4627C9.41467 38.2987 9.31748 38.1491 9.19344 38.0225C9.06941 37.8958 8.92101 37.7948 8.7569 37.7253C8.59279 37.6557 8.41625 37.619 8.23758 37.6173L8.21609 37.6174Z" fill="#5E60CE"/>
<path d="M11.9757 37.5961C11.797 37.5934 11.6195 37.6253 11.4533 37.6902C11.2871 37.755 11.1356 37.8514 11.0072 37.9739C10.8789 38.0964 10.7764 38.2426 10.7054 38.4042C10.6345 38.5657 10.5966 38.7394 10.5939 38.9153L10.6264 44.6473C10.6284 45.0101 10.7768 45.3572 11.0388 45.6122C11.3008 45.8672 11.655 46.0093 12.0234 46.0072C12.3919 46.0052 12.7444 45.859 13.0035 45.6011C13.2626 45.3431 13.407 44.9943 13.405 44.6316L13.373 38.9913C13.3777 38.8154 13.3468 38.6404 13.2822 38.4764C13.2175 38.3124 13.1203 38.1628 12.9962 38.0362C12.8722 37.9095 12.7238 37.8085 12.5597 37.739C12.3956 37.6694 12.2191 37.6327 12.0404 37.631L11.9757 37.5961Z" fill="#5E60CE"/>
</g>
<defs>
<clipPath id="clip0_43_109">
<rect width="22" height="36" fill="white" transform="translate(0.898193 10.0627) rotate(-0.324843)"/>
</clipPath>
</defs>
</svg>
